 <svg  version="1.0" xmlns="http://www.w3.org/2000/svg"  width="450.000000pt" height="278.000000pt" viewBox="0 0 450.000000 278.000000"  preserveAspectRatio="xMidYMid meet">  <g transform="translate(0.000000,278.000000) scale(0.050000,-0.050000)" fill="#92c32a" stroke="none"> <path d="M23 5509 c-30 -67 -34 -5509 -3 -5509 13 0 20 928 20 2743 0 2525 3 2747 33 2780 28 31 29 37 3 37 -16 0 -40 -23 -53 -51z"/> <path d="M8874 5512 c23 -31 41 -40 50 -26 17 28 -19 74 -57 74 -23 0 -21 -10 7 -48z"/> <path d="M4344 4385 c-132 -346 -98 -563 133 -844 187 -228 227 -423 133 -649 -31 -73 -34 -75 -70 -42 -37 33 -37 38 -5 97 122 228 -44 554 -326 642 -187 59 -650 97 -676 56 -36 -58 80 -537 171 -710 145 -272 466 -359 677 -181 90 76 170 11 98 -81 -50 -63 -38 -119 23 -109 52 7 186 221 229 364 62 211 14 468 -112 603 -39 41 -39 42 18 96 l57 55 74 -43 c266 -157 518 60 614 530 52 256 59 246 -155 228 -515 -44 -764 -278 -624 -586 23 -50 -35 -151 -86 -151 -105 0 -169 388 -98 598 24 70 39 140 33 155 -19 48 -86 31 -108 -28z m956 -113 c0 -15 -82 -100 -181 -189 -213 -188 -212 -187 -75 -213 74 -15 108 -31 112 -55 9 -44 -24 -44 -180 -4 -107 28 -124 28 -154 1 -23 -21 -42 -24 -62 -10 -24 15 -11 37 74 116 l103 97 -15 112 c-14 104 -1 153 40 153 8 0 20 -45 28 -100 l14 -100 123 110 c124 110 173 134 173 82z m-1426 -873 l164 -140 6 115 c5 94 13 117 43 123 35 6 37 -6 30 -148 l-8 -154 125 -102 c69 -57 126 -119 126 -138 0 -44 -36 -45 -82 -3 -32 29 -49 27 -209 -22 -124 -38 -180 -47 -196 -31 -34 34 9 61 160 99 161 41 163 32 -53 215 -302 255 -327 279 -312 303 23 38 32 32 206 -117z"/> <path d="M2465 2207 c-18 -8 -26 -93 -27 -324 -2 -384 -8 -411 -94 -419 -58 -6 -68 1 -95 66 -41 97 -116 94 -125 -5 -10 -101 83 -185 206 -185 203 0 231 62 232 514 1 357 -8 389 -97 353z"/> <path d="M2928 2205 c-43 -29 -225 -801 -198 -838 37 -51 85 -19 110 72 21 81 22 81 121 81 l99 0 12 -79 c14 -84 71 -126 114 -83 21 21 14 86 -58 525 -49 299 -104 388 -200 322z m81 -320 c7 -63 17 -144 23 -180 10 -63 8 -65 -63 -65 -70 0 -73 3 -62 55 6 30 22 111 36 180 30 156 51 159 66 10z"/> <path d="M3389 2194 c-5 -14 -7 -209 -4 -435 l5 -409 50 0 c49 0 50 3 56 175 l6 175 59 0 c65 0 108 -71 159 -260 18 -66 30 -80 71 -80 67 0 65 71 -10 245 -54 127 -55 137 -22 160 99 70 113 259 26 356 -78 87 -370 141 -396 73z m296 -150 c95 -83 4 -224 -146 -224 -37 0 -62 230 -29 263 19 19 140 -8 175 -39z"/> <path d="M4050 2206 c-41 -33 -25 -845 16 -858 58 -18 223 12 291 53 217 132 216 667 -2 774 -63 31 -278 53 -305 31z m279 -165 c90 -99 83 -412 -11 -506 -63 -63 -192 -81 -170 -23 7 17 12 152 12 300 l0 268 67 0 c41 0 81 -15 102 -39z"/> <path d="M4727 2195 c-9 -14 -14 -205 -12 -425 3 -423 15 -476 93 -411 41 34 48 797 8 837 -31 31 -70 31 -89 -1z"/> <path d="M5064 2196 c-37 -37 -34 -803 3 -834 27 -22 92 -11 94 15 0 7 3 141 5 298 2 157 9 285 15 285 5 0 61 -52 124 -115 l113 -115 6 -178 c5 -146 12 -182 42 -200 77 -47 89 18 80 433 -10 435 -10 435 -65 435 -61 0 -85 -67 -71 -196 l13 -114 -152 155 c-160 163 -169 169 -207 131z"/> <path d="M6425 2206 c-39 -14 -30 -69 37 -244 l62 -162 -70 -165 c-96 -227 -100 -245 -63 -276 52 -43 91 0 142 150 26 76 51 142 56 147 13 12 111 -206 111 -246 0 -48 72 -75 108 -40 35 35 17 103 -76 286 -65 129 -66 120 20 319 74 173 77 225 11 225 -50 0 -71 -29 -112 -155 -44 -134 -57 -132 -98 14 -32 116 -75 166 -128 147z"/> <path d="M5725 1776 l5 -426 203 -6 c228 -6 288 19 245 99 -19 37 -37 40 -171 34 l-150 -7 -2 160 -2 160 110 -7 c118 -7 167 22 153 91 -5 29 -32 38 -136 46 l-130 10 0 70 0 70 160 10 c155 10 160 12 160 60 l0 50 -225 6 -226 5 6 -425z"/> <path d="M2602 1052 c-38 -46 -20 -142 26 -142 21 0 42 11 47 25 5 14 -6 25 -23 25 -18 0 -32 14 -32 30 0 17 14 30 32 30 17 0 28 11 23 24 -12 37 -46 40 -73 8z"/> <path d="M2968 1048 c7 -17 12 -53 12 -80 0 -26 9 -48 20 -48 11 0 20 22 20 49 0 27 9 54 20 61 31 19 3 50 -43 50 -29 0 -38 -9 -29 -32z"/> <path d="M3187 1013 c18 -122 40 -126 73 -14 14 51 13 62 -8 54 -15 -5 -38 1 -52 14 -20 18 -23 7 -13 -54z"/> <path d="M3344 1056 c-41 -41 -30 -136 16 -136 30 0 40 13 40 55 -1 77 -25 112 -56 81z"/> <path d="M3554 1067 c-52 -52 -1 -182 62 -157 31 12 31 14 -3 34 -22 12 -29 26 -17 33 34 22 37 91 3 98 -17 3 -37 0 -45 -8z"/> <path d="M3913 1067 c-21 -21 -15 -143 7 -157 19 -12 36 19 69 125 14 45 -40 67 -76 32z"/> <path d="M4197 1071 c-5 -6 -5 -42 -1 -80 9 -80 44 -97 44 -22 0 27 9 54 20 61 12 7 15 21 9 31 -12 20 -56 26 -72 10z"/> <path d="M4473 1067 c-36 -37 -13 -142 32 -142 35 0 45 11 45 53 -1 80 -40 125 -77 89z"/> <path d="M4625 1057 c-34 -34 -32 -130 3 -143 61 -24 94 68 47 133 -20 27 -31 29 -50 10z"/> <path d="M4854 1067 c-21 -21 -17 -143 6 -157 34 -21 65 10 40 40 -14 16 -15 31 -3 38 24 15 17 77 -10 86 -11 4 -26 1 -33 -7z"/> <path d="M5237 1070 c-18 -17 12 -160 33 -160 11 0 21 23 23 50 1 28 9 66 17 85 14 33 -45 53 -73 25z"/> <path d="M5884 1063 c-49 -31 -22 -143 34 -141 34 2 40 6 17 12 -38 10 -48 46 -13 46 12 0 17 13 11 29 -6 15 0 32 12 36 14 5 11 12 -8 19 -17 7 -41 6 -53 -1z"/> <path d="M6000 1003 c0 -68 6 -78 45 -78 47 0 64 75 29 130 -35 54 -74 26 -74 -52z"/> <path d="M6148 1048 c7 -17 12 -53 12 -80 0 -26 9 -48 20 -48 11 0 20 27 20 60 0 33 10 60 21 60 12 0 16 9 9 20 -21 35 -96 24 -82 -12z"/> <path d="M6284 1056 c-51 -51 -2 -182 55 -147 35 22 20 171 -17 171 -8 0 -25 -11 -38 -24z"/> <path d="M2720 989 c0 -76 28 -103 71 -68 51 43 37 134 -21 134 -43 0 -50 -9 -50 -66z"/> <path d="M2860 989 c0 -45 11 -75 31 -82 41 -16 62 8 33 37 -13 13 -24 45 -24 70 0 25 -9 46 -20 46 -11 0 -20 -32 -20 -71z"/> <path d="M3100 990 c0 -38 9 -70 20 -70 11 0 20 32 20 70 0 39 -9 70 -20 70 -11 0 -20 -31 -20 -70z"/> <path d="M3680 989 c0 -75 44 -113 85 -72 16 16 13 25 -12 34 -18 8 -33 35 -33 61 0 26 -9 48 -20 48 -11 0 -20 -32 -20 -71z"/> <path d="M4040 1002 c0 -61 45 -114 79 -93 26 16 28 151 2 151 -10 0 -22 -25 -27 -55 l-8 -55 -3 55 c-4 73 -43 71 -43 -3z"/> <path d="M4320 991 c0 -75 19 -98 68 -79 21 8 32 37 32 80 0 81 -34 91 -46 13 l-8 -55 -3 55 c-4 80 -43 68 -43 -14z"/> <path d="M4980 988 c0 -71 31 -93 46 -33 9 33 9 33 12 0 4 -65 42 -36 42 33 0 58 -7 67 -50 67 -43 0 -50 -9 -50 -67z"/> <path d="M5364 985 c5 -60 14 -75 46 -75 32 0 41 15 46 75 7 86 -29 103 -42 20 l-8 -55 -3 55 c-2 30 -13 55 -24 55 -12 0 -19 -32 -15 -75z"/> <path d="M5600 990 c0 -69 27 -94 47 -45 8 20 10 20 11 0 4 -59 42 -18 42 45 0 69 -27 94 -47 45 -8 -20 -10 -20 -11 0 -4 59 -42 18 -42 -45z"/> <path d="M5740 991 c0 -72 18 -97 53 -75 28 18 46 122 24 136 -9 6 -17 -13 -17 -42 0 -31 -8 -47 -21 -39 -11 7 -15 30 -8 51 6 21 2 38 -10 38 -11 0 -21 -31 -21 -69z"/> </g> </svg> 