<?xml version="1.0" standalone="no"?>
<!DOCTYPE svg PUBLIC "-//W3C//DTD SVG 20010904//EN"
 "http://www.w3.org/TR/2001/REC-SVG-20010904/DTD/svg10.dtd">
<svg version="1.0" xmlns="http://www.w3.org/2000/svg"
 width="496.000000pt" height="138.000000pt" viewBox="0 0 496.000000 138.000000"
 preserveAspectRatio="xMidYMid meet">
<metadata>
Created by potrace 1.10, written by Peter Selinger 2001-2011
</metadata>
<g transform="translate(0.000000,138.000000) scale(0.050000,-0.050000)"
fill="#9cc048" stroke="none">
<path d="M1752 2314 c-36 -26 -351 -1224 -352 -1338 -1 -186 180 -138 211 56
20 124 21 125 209 111 163 -12 170 -15 175 -63 18 -172 71 -240 165 -210 60
19 82 74 59 152 -10 38 -42 226 -71 418 -124 838 -203 1015 -396 874z m115
-349 c5 -8 19 -114 31 -235 13 -121 28 -259 35 -306 l12 -85 -113 4 c-145 4
-144 1 -85 242 27 113 56 248 64 300 12 88 33 117 56 80z"/>
<path d="M5417 2327 c-54 -15 -56 -40 -68 -724 -11 -694 -10 -704 83 -731 116
-35 127 11 131 553 2 272 7 495 11 495 4 0 100 -93 213 -207 l206 -207 4 -298
c5 -314 15 -348 105 -348 102 0 105 24 91 670 -7 330 -13 638 -13 685 0 109
-66 152 -148 98 -64 -42 -79 -124 -57 -309 10 -80 13 -149 6 -153 -13 -8 -338
303 -434 415 -35 41 -71 73 -80 72 -9 -2 -32 -7 -50 -11z"/>
<path d="M942 2302 c-22 -15 -25 -68 -14 -285 20 -423 -14 -897 -69 -942 -92
-74 -216 -22 -267 113 -64 167 -227 119 -207 -61 38 -337 612 -391 711 -67 37
124 60 1153 26 1216 -25 46 -125 61 -180 26z"/>
<path d="M2533 2307 c-7 -8 -13 -327 -13 -711 l0 -697 52 -20 c37 -14 67 -12
105 6 l53 26 -8 274 -7 275 71 0 c39 0 84 5 101 12 39 15 93 -89 180 -348 81
-241 82 -244 152 -244 123 0 106 165 -54 526 l-51 116 71 59 c226 186 137 641
-140 718 -82 23 -490 29 -512 8z m441 -217 c255 -107 143 -410 -152 -410 l-99
0 6 195 c4 107 7 206 9 220 3 35 147 32 236 -5z"/>
<path d="M3639 2307 c-1 -9 -1 -260 -1 -557 1 -297 -6 -603 -16 -680 -20 -167
-11 -181 119 -198 475 -63 713 203 694 776 -19 536 -119 654 -570 669 -124 4
-226 0 -226 -10z m474 -237 c94 -61 117 -152 117 -460 0 -396 -55 -487 -318
-523 l-97 -13 16 68 c8 37 14 274 13 526 l-1 457 110 -11 c61 -6 133 -26 160
-44z"/>
<path d="M4806 2298 c-32 -32 -13 -1401 20 -1422 43 -27 107 -17 144 24 53 59
51 1324 -3 1383 -36 41 -127 49 -161 15z"/>
<path d="M6511 2302 c-5 -9 -6 -335 -3 -724 l8 -708 217 -6 c468 -14 612 31
549 169 l-23 52 -270 -9 -269 -9 0 278 0 279 115 -6 c295 -14 393 34 323 159
-28 51 -39 53 -229 63 l-199 10 -6 132 -6 132 248 -10 c243 -9 249 -8 281 38
42 60 42 106 0 141 -37 30 -718 49 -736 19z"/>
<path d="M7660 2280 c-18 -33 -1 -99 90 -347 l111 -305 -70 -153 c-183 -403
-219 -582 -123 -606 90 -23 122 18 211 270 47 133 91 245 100 250 15 9 114
-204 171 -367 40 -116 64 -142 130 -142 137 0 127 97 -51 481 -132 286 -131
247 -9 504 164 348 175 455 48 455 -49 0 -128 -63 -128 -101 0 -27 -122 -344
-141 -366 -8 -9 -42 72 -76 180 -87 280 -193 378 -263 247z"/>
</g>
</svg>
